<svg width="36" height="36" viewBox="0 0 36 36" fill="none" xmlns="http://www.w3.org/2000/svg">
<g id="report_24px">
<path id="icon/content/report_24px" fill-rule="evenodd" clip-rule="evenodd" d="M12.405 4.5H23.595L31.5 12.405V23.595L23.595 31.5H12.405L4.5 23.595V12.405L12.405 4.5ZM22.35 28.5L28.5 22.35V13.65L22.35 7.5H13.65L7.5 13.65V22.35L13.65 28.5H22.35ZM18 22.5C17.1716 22.5 16.5 23.1716 16.5 24C16.5 24.8284 17.1716 25.5 18 25.5C18.8284 25.5 19.5 24.8284 19.5 24C19.5 23.1716 18.8284 22.5 18 22.5ZM19.5 10.5H16.5V21H19.5V10.5Z" fill="black"/>
</g>
</svg>
